<svg width="42" height="12" viewBox="0 0 42 12" fill="none" xmlns="http://www.w3.org/2000/svg">
<path d="M41.7566 6.59794L36.7599 11.7526C36.5994 11.9175 36.3987 12 36.1981 12C35.9974 12 35.7967 11.9175 35.6362 11.7526C35.3151 11.4227 35.3151 10.9072 35.6362 10.5773L39.2683 6.82474L0.802681 6.82474C0.361206 6.82474 0 6.45361 0 6C0 5.54639 0.361206 5.17526 0.802681 5.17526L39.2683 5.17526L35.6362 1.42268C35.3151 1.09279 35.3151 0.57732 35.6362 0.247423C35.9572 -0.0824742 36.4589 -0.0824742 36.78 0.247423L41.7767 5.40206C42.0777 5.75258 42.0777 6.28866 41.7566 6.59794Z" fill="white"/>
</svg>
