<svg width="29" height="72" viewBox="0 0 29 72" fill="none" xmlns="http://www.w3.org/2000/svg">
<path d="M8.31446 0H19.9067C22.1852 0 24.2638 0.939374 25.7628 2.43837C27.2618 3.93737 28.2012 6.01599 28.2012 8.29447V32.998C28.2012 35.2765 27.2618 37.3551 25.7628 38.8741C24.2638 40.3731 22.1852 41.3125 19.9067 41.3125H8.31446C6.03598 41.3125 3.95736 40.3731 2.45836 38.8741C0.939374 37.3551 0 35.2965 0 32.998V8.31446C0 6.03598 0.939374 3.95736 2.43837 2.45836C3.93737 0.939374 6.01599 0 8.31446 0ZM19.9067 1.83877H8.31446C6.53564 1.83877 4.91672 2.55829 3.75749 3.73751C2.59827 4.91672 1.83877 6.53564 1.83877 8.31446V33.018C1.83877 34.7968 2.55829 36.4157 3.73751 37.5749C4.91672 38.7542 6.51566 39.4737 8.29447 39.4737H19.8867C21.6656 39.4737 23.2845 38.7542 24.4437 37.5749C25.6229 36.3957 26.3424 34.7768 26.3424 33.018V8.31446C26.3424 6.53564 25.6229 4.91672 24.4437 3.75749C23.2645 2.59827 21.6656 1.83877 19.9067 1.83877Z" fill="white"/>
<path d="M15.0301 8.39429V16.349H13.1714V8.39429H15.0301Z" fill="white"/>
<path d="M5.39673 47.8901L14.0909 53.8461L22.8051 47.5703L23.8644 49.0493L14.1109 56.0846L4.35742 49.4291L5.39673 47.8901Z" fill="white" fill-opacity="0.1"/>
<path d="M5.39673 55.8254L14.0909 61.7614L22.8051 55.4856L23.8644 56.9646L14.1109 63.9999L4.35742 57.3444L5.39673 55.8254Z" fill="white" fill-opacity="0.3"/>
<path d="M5.39673 63.8254L14.0909 69.7614L22.8051 63.4856L23.8644 64.9646L14.1109 71.9999L4.35742 65.3444L5.39673 63.8254Z" fill="white"/>
</svg>
