<svg width="18" height="18" viewBox="0 0 18 18" fill="none" xmlns="http://www.w3.org/2000/svg">
<path d="M18 8.76612C18 13.5996 14.0369 17.5322 9.16586 17.5322C7.68186 17.5322 6.19787 17.1684 4.88846 16.4408L0 18L1.58875 13.2878C0.750727 11.9192 0.314258 10.36 0.314258 8.76612C0.314258 3.93263 4.2774 0 9.1484 0C14.0369 0 18 3.93263 18 8.76612ZM16.516 8.76612C16.516 4.74687 13.2163 1.45525 9.1484 1.45525C5.09796 1.45525 1.7808 4.72955 1.7808 8.76612C1.7808 10.308 2.26964 11.7979 3.19496 13.0452L2.26964 15.7652L5.11542 14.8643C6.32008 15.6439 7.73424 16.077 9.16586 16.077C13.2163 16.077 16.516 12.8027 16.516 8.76612ZM13.7226 11.0356C13.7401 11.0876 13.7401 11.1569 13.7401 11.2089C13.7401 11.5034 13.6528 11.8325 13.548 12.0924C13.2861 12.7507 12.1862 13.1665 11.5228 13.1665C10.9641 13.1665 9.79438 12.6814 9.28807 12.4389C7.61203 11.6939 6.5645 10.3946 5.56935 8.92204C5.11542 8.26372 4.73133 7.46679 4.73133 6.66988V6.58325C4.74879 5.82098 5.02813 5.2666 5.60427 4.74687C5.77886 4.59095 5.9709 4.48701 6.21533 4.48701C6.355 4.48701 6.49467 4.52166 6.65179 4.52166C6.96605 4.52166 7.01843 4.60828 7.14064 4.92012C7.22793 5.11068 7.82153 6.70452 7.82153 6.80847C7.82153 7.2589 7.01843 7.74398 7.01843 8.02117C7.01843 8.07315 7.03589 8.14244 7.07081 8.19442C7.33269 8.7488 7.82153 9.37247 8.27546 9.78826C8.81668 10.308 9.39282 10.6372 10.0388 10.9663C10.1261 11.0183 10.1959 11.0529 10.3007 11.0529C10.6499 11.0529 11.2435 9.92685 11.5403 9.92685C11.7323 9.90953 13.6528 10.897 13.7226 11.0356Z" fill="white"/>
</svg>
