<svg width="19" height="10" viewBox="0 0 19 10" fill="none" xmlns="http://www.w3.org/2000/svg">
<path d="M17.4999 3.41289C15.5845 5.76264 15.3782 5.54532 16.9547 6.90356C18.4723 8.20747 18.7964 8.83226 18.8406 8.91375C18.8406 8.91375 19.4742 9.93243 18.1334 9.94601L15.5992 9.98676C15.0541 10.0818 14.3322 9.63362 14.3322 9.63362C13.3892 9.02241 12.4905 7.47402 11.798 7.66418C11.798 7.66418 11.0908 7.86791 11.1055 9.28048C11.1202 9.57929 10.9582 9.74228 10.9582 9.74228C10.9582 9.74228 10.7814 9.91885 10.4278 9.94601H9.29328C6.78858 10.0954 4.57855 7.96299 4.57855 7.96299C4.57855 7.96299 2.17698 5.66756 0.0553428 1.07672C-0.0772592 0.777908 0.0700764 0.628501 0.0700764 0.628501C0.0700764 0.628501 0.217412 0.45193 0.629952 0.45193L3.34093 0.438348C3.5914 0.479095 3.78293 0.601337 3.78293 0.601337C3.78293 0.601337 3.945 0.696413 4.01867 0.886567C4.46068 1.90525 5.03529 2.84243 5.03529 2.84243C6.02243 4.7168 6.70018 5.04278 7.08325 4.85262C7.08325 4.85262 7.58419 4.56739 7.48106 2.29913C7.43686 1.48419 7.20112 1.10388 7.20112 1.10388C6.98012 0.818655 6.55284 0.737161 6.36131 0.709996C6.21397 0.696413 6.46444 0.356854 6.78858 0.22103C7.26005 0.00371189 8.1146 -0.00987049 9.14595 0.0037119C9.94156 0.0172943 10.1773 0.0580414 10.4867 0.125953C11.4296 0.329689 11.1055 1.14463 11.1055 3.07333C11.1055 3.69812 10.9729 4.55381 11.4591 4.83904C11.6654 4.96128 12.1811 4.85262 13.4481 2.86959C13.4481 2.86959 14.0375 1.91883 14.509 0.818655C14.5826 0.614919 14.7594 0.533425 14.7594 0.533425C14.7594 0.533425 14.9215 0.45193 15.1425 0.479095L17.9713 0.465513C18.8259 0.370436 18.9732 0.723578 18.9732 0.723578C19.1206 1.10388 18.6638 1.97316 17.4999 3.41289Z" fill="white"/>
</svg>
