<svg width="18" height="18" viewBox="0 0 18 18" fill="none" xmlns="http://www.w3.org/2000/svg">
<path d="M17.9563 5.29081C17.8865 3.84204 17.5546 2.56783 16.5067 1.52053C15.4588 0.473225 14.1664 0.14158 12.7342 0.0717595C11.4942 -0.0155156 10.2541 0.00193945 9.01407 0.00193945C7.77403 0.00193945 6.53399 -0.0155156 5.29395 0.0543045C3.84432 0.124125 2.56935 0.45577 1.52143 1.52053C0.473505 2.56783 0.141664 3.8595 0.0718021 5.29081C-0.0155248 6.53012 0.0019406 7.76942 0.0019406 9.00873C0.0019406 10.248 -0.0155248 11.4873 0.0543367 12.7266C0.124198 14.1754 0.45604 15.4496 1.50396 16.4969C2.55188 17.5442 3.84432 17.8759 5.27648 17.9457C6.51652 18.0155 7.75656 17.9981 8.9966 17.9981C10.2366 17.9981 11.4767 18.0155 12.7167 17.9457C14.1664 17.8759 15.4413 17.5442 16.4892 16.4969C17.5372 15.4496 17.869 14.158 17.9389 12.7266C18.0087 11.4873 17.9913 10.248 17.9913 9.00873C17.9913 7.76942 18.0262 6.53012 17.9563 5.29081ZM16.0351 14.3151C15.878 14.734 15.6684 15.0307 15.354 15.3449C15.0396 15.6591 14.7252 15.8685 14.3235 16.0256C13.1359 16.4969 10.324 16.3922 9.01407 16.3922C7.70417 16.3922 4.89224 16.4969 3.7046 16.0256C3.28543 15.8685 2.98852 15.6591 2.67414 15.3449C2.35977 15.0307 2.15018 14.7165 1.99299 14.3151C1.52143 13.1281 1.62622 10.3179 1.62622 9.00873C1.62622 7.6996 1.52143 4.88934 1.99299 3.7024C2.15018 3.28348 2.35977 2.98675 2.67414 2.67256C2.98852 2.35837 3.30289 2.14891 3.7046 1.99181C4.89224 1.52053 7.70417 1.62526 9.01407 1.62526C10.324 1.62526 13.1359 1.52053 14.3235 1.99181C14.7427 2.14891 15.0396 2.35837 15.354 2.67256C15.6684 2.98675 15.878 3.30094 16.0351 3.7024C16.5067 4.88934 16.4019 7.6996 16.4019 9.00873C16.4019 10.3179 16.5067 13.1281 16.0351 14.3151Z" fill="white"/>
<path d="M13.817 3.12639C13.2232 3.12639 12.7342 3.61513 12.7342 4.2086C12.7342 4.80207 13.2232 5.29081 13.817 5.29081C14.4109 5.29081 14.8999 4.80207 14.8999 4.2086C14.8999 3.59767 14.4283 3.12639 13.817 3.12639Z" fill="white"/>
<path d="M9.01407 4.38315C6.46413 4.38315 4.38575 6.44284 4.38575 9.00873C4.38575 11.5746 6.44666 13.6343 9.01407 13.6343C11.5815 13.6343 13.6424 11.5746 13.6424 9.00873C13.6424 6.44284 11.564 4.38315 9.01407 4.38315ZM9.01407 12.011C7.35486 12.011 6.01003 10.667 6.01003 9.00873C6.01003 7.3505 7.35486 6.00646 9.01407 6.00646C10.6733 6.00646 12.0181 7.3505 12.0181 9.00873C12.0181 10.667 10.6733 12.011 9.01407 12.011Z" fill="white"/>
</svg>
